<?xml version="1.0" encoding="utf-8"?>
<!-- Generator: Adobe Illustrator 25.3.0, SVG Export Plug-In . SVG Version: 6.00 Build 0)  -->
<svg version="1.1" id="Calque_1" xmlns="http://www.w3.org/2000/svg" xmlns:xlink="http://www.w3.org/1999/xlink" x="0px" y="0px"
	 viewBox="0 0 206.85 38.83" style="enable-background:new 0 0 206.85 38.83;" xml:space="preserve">
<style type="text/css">
	.st0{clip-path:url(#SVGID_2_);fill:#1A1D40;}
	.st1{clip-path:url(#SVGID_2_);}
	.st2{clip-path:url(#SVGID_4_);fill:#1A1D40;}
	.st3{clip-path:url(#SVGID_4_);fill:#245BE7;}
	.st4{clip-path:url(#SVGID_4_);fill:#E94361;}
	.st5{clip-path:url(#SVGID_4_);fill:#00B084;}
	.st6{clip-path:url(#SVGID_4_);fill:#FCBF21;}
	.st7{opacity:0.1;clip-path:url(#SVGID_4_);}
	.st8{clip-path:url(#SVGID_6_);}
	.st9{clip-path:url(#SVGID_8_);fill:#F8A815;}
	.st10{clip-path:url(#SVGID_10_);}
	.st11{clip-path:url(#SVGID_12_);fill:#F8A815;}
	.st12{opacity:0.2;clip-path:url(#SVGID_4_);}
	.st13{clip-path:url(#SVGID_14_);}
	.st14{clip-path:url(#SVGID_16_);fill:#F9B216;}
	.st15{clip-path:url(#SVGID_4_);fill:#FFCF1E;}
</style>
<g>
	<defs>
		<rect id="SVGID_1_" width="206.85" height="38.83"/>
	</defs>
	<clipPath id="SVGID_2_">
		<use xlink:href="#SVGID_1_"  style="overflow:visible;"/>
	</clipPath>
	<rect x="50" y="2.29" class="st0" width="5.22" height="27.38"/>
	<g class="st1">
		<defs>
			<rect id="SVGID_3_" y="0" width="206.84" height="38.83"/>
		</defs>
		<clipPath id="SVGID_4_">
			<use xlink:href="#SVGID_3_"  style="overflow:visible;"/>
		</clipPath>
		<path class="st2" d="M73.42,9.17h5.22v20.5h-5.22v-3.11c-1.31,2.24-3.44,3.36-6.4,3.36c-2.32,0-4.22-0.77-5.7-2.31
			c-1.48-1.54-2.22-3.68-2.22-6.42V9.17h5.18v11.29c0,1.6,0.4,2.83,1.22,3.7c0.82,0.86,1.92,1.29,3.33,1.29s2.52-0.43,3.35-1.29
			c0.83-0.86,1.24-2.1,1.24-3.7V9.17z"/>
		<path class="st2" d="M87.56,9.17v3.07c1.31-2.25,3.43-3.37,6.36-3.37c1.56,0,2.94,0.36,4.17,1.07c1.22,0.72,2.16,1.74,2.83,3.07
			c0.71-1.28,1.69-2.29,2.94-3.03c1.25-0.74,2.65-1.11,4.2-1.11c2.44,0,4.41,0.77,5.9,2.29c1.49,1.53,2.24,3.68,2.24,6.44v12.06
			h-5.18V18.35c0-1.6-0.41-2.83-1.22-3.68c-0.81-0.85-1.93-1.28-3.33-1.28s-2.52,0.43-3.35,1.28c-0.83,0.85-1.24,2.08-1.24,3.68
			v11.32h-5.18V18.35c0-1.6-0.4-2.83-1.22-3.68c-0.81-0.85-1.92-1.28-3.33-1.28s-2.52,0.43-3.35,1.28
			c-0.83,0.85-1.24,2.08-1.24,3.68v11.32h-5.22V9.17H87.56z"/>
		<path class="st2" d="M121.39,26.99c-1.84-1.98-2.76-4.52-2.76-7.6c0-3.08,0.91-5.61,2.74-7.57c1.83-1.96,4.14-2.94,6.96-2.94
			c2.81,0,4.96,1.16,6.44,3.48V9.17h5.18v20.5h-5.18v-3.44c-1.55,2.49-3.71,3.74-6.48,3.74C125.53,29.96,123.23,28.97,121.39,26.99
			 M133.14,23.84c1.08-1.07,1.63-2.55,1.63-4.42s-0.54-3.35-1.63-4.42c-1.08-1.07-2.36-1.61-3.81-1.61c-1.46,0-2.72,0.53-3.79,1.59
			c-1.07,1.06-1.61,2.53-1.61,4.4c0,1.87,0.54,3.35,1.63,4.44c1.08,1.09,2.35,1.63,3.79,1.63
			C130.79,25.45,132.06,24.91,133.14,23.84"/>
		<path class="st2" d="M190.01,15.17c0-1.78,0.75-3.27,2.26-4.48s3.5-1.81,6-1.81c2.49,0,4.49,0.6,5.99,1.8
			c1.5,1.2,2.31,2.82,2.41,4.86h-5.33c-0.15-1.72-1.21-2.59-3.18-2.59c-0.99,0-1.75,0.2-2.29,0.59c-0.54,0.4-0.81,0.94-0.81,1.63
			c0,0.69,0.41,1.23,1.22,1.63c0.81,0.39,1.8,0.7,2.96,0.93c1.16,0.22,2.31,0.5,3.46,0.83c1.15,0.33,2.13,0.92,2.94,1.77
			c0.81,0.85,1.22,1.98,1.22,3.39c0,1.85-0.78,3.35-2.35,4.51c-1.56,1.16-3.56,1.74-5.99,1.74c-2.43,0-4.42-0.57-5.98-1.72
			c-1.55-1.15-2.4-2.79-2.55-4.94h5.33c0.2,1.73,1.3,2.59,3.29,2.59c0.96,0,1.74-0.22,2.33-0.65c0.59-0.43,0.89-1,0.89-1.7
			c0-0.7-0.41-1.26-1.22-1.66c-0.81-0.41-1.8-0.72-2.96-0.95c-1.16-0.22-2.31-0.49-3.46-0.81c-1.15-0.32-2.13-0.89-2.94-1.72
			C190.42,17.58,190.01,16.5,190.01,15.17"/>
		<path class="st2" d="M172.43,36.54V26.23c1.53,2.49,3.68,3.74,6.46,3.74s5.07-0.99,6.9-2.96c1.82-1.97,2.73-4.51,2.73-7.6
			c0-3.1-0.91-5.63-2.73-7.59c-1.83-1.96-4.15-2.94-6.96-2.94s-4.95,1.16-6.4,3.48V9.17h-5.22v27.37H172.43z M174.04,15
			c1.07-1.07,2.34-1.61,3.79-1.61c1.46,0,2.72,0.53,3.79,1.59c1.07,1.06,1.61,2.53,1.61,4.4c0,1.88-0.54,3.35-1.61,4.44
			c-1.07,1.08-2.34,1.62-3.79,1.62c-1.46,0-2.72-0.53-3.79-1.61c-1.07-1.07-1.61-2.55-1.61-4.42
			C172.43,17.55,172.97,16.07,174.04,15"/>
		<path class="st2" d="M149.24,36.54V26.23c1.53,2.49,3.68,3.74,6.46,3.74s5.07-0.99,6.9-2.96c1.83-1.97,2.74-4.51,2.74-7.6
			c0-3.1-0.91-5.63-2.74-7.59c-1.83-1.96-4.14-2.94-6.96-2.94s-4.95,1.16-6.4,3.48V9.17h-5.22v27.37H149.24z M150.85,15
			c1.07-1.07,2.34-1.61,3.79-1.61c1.46,0,2.72,0.53,3.79,1.59c1.07,1.06,1.61,2.53,1.61,4.4c0,1.88-0.54,3.35-1.61,4.44
			c-1.07,1.08-2.34,1.62-3.79,1.62c-1.45,0-2.72-0.53-3.79-1.61c-1.07-1.07-1.61-2.55-1.61-4.42
			C149.24,17.55,149.77,16.07,150.85,15"/>
		<path class="st3" d="M28.3,25.94l-9.08,5.3l-9.09-5.3c-0.39-0.23-0.88,0.05-0.88,0.51l0,6.23c0,0.21,0.11,0.4,0.29,0.51l9.67,5.66
			v-0.01l9.68-5.65c0.18-0.1,0.29-0.3,0.29-0.51l0.01-6.23C29.19,25.99,28.7,25.71,28.3,25.94"/>
		<path class="st4" d="M38.37,5.64l-9.73-5.56c-0.18-0.1-0.41-0.1-0.59,0l-5.39,3.11c-0.39,0.23-0.39,0.79,0,1.02l9.13,5.22l0.01,0
			l-0.06,10.52c0,0.45,0.49,0.74,0.88,0.51l5.39-3.11c0.18-0.1,0.29-0.3,0.29-0.51L38.37,5.64L38.37,5.64z"/>
		<path class="st5" d="M15.71,3.2l-5.39-3.11c-0.18-0.1-0.4-0.1-0.59,0L0,5.62l0.01,0l0.05,11.2c0,0.21,0.11,0.4,0.29,0.51
			l5.39,3.12c0.39,0.23,0.88-0.06,0.88-0.51L6.57,9.42l9.14-5.2C16.1,3.99,16.1,3.43,15.71,3.2"/>
		<path class="st6" d="M27.2,21.04V12.3c0-0.19-0.1-0.37-0.27-0.46l-7.49-4.37c-0.17-0.09-0.37-0.09-0.54,0l-7.49,4.37
			c-0.16,0.1-0.27,0.27-0.27,0.46v8.74c0,0.19,0.1,0.37,0.27,0.46l7.49,4.37c0.17,0.1,0.37,0.1,0.54,0l7.49-4.37
			C27.1,21.41,27.2,21.23,27.2,21.04"/>
		<g class="st7">
			<g>
				<defs>
					<rect id="SVGID_5_" x="11.15" y="12.19" width="8.02" height="13.64"/>
				</defs>
				<clipPath id="SVGID_6_">
					<use xlink:href="#SVGID_5_"  style="overflow:visible;"/>
				</clipPath>
				<g class="st8">
					<defs>
						<rect id="SVGID_7_" x="11.15" y="12.19" width="8.02" height="13.64"/>
					</defs>
					<clipPath id="SVGID_8_">
						<use xlink:href="#SVGID_7_"  style="overflow:visible;"/>
					</clipPath>
					<path class="st9" d="M19.18,16.67l-7.62-4.44c-0.18-0.11-0.4,0.02-0.4,0.23v8.59c0,0.19,0.1,0.37,0.26,0.46l7.36,4.29
						c0.18,0.1,0.4-0.03,0.4-0.23V16.67z"/>
				</g>
			</g>
		</g>
		<g class="st7">
			<g>
				<defs>
					<rect id="SVGID_9_" x="19.18" y="12.19" width="8.02" height="13.65"/>
				</defs>
				<clipPath id="SVGID_10_">
					<use xlink:href="#SVGID_9_"  style="overflow:visible;"/>
				</clipPath>
				<g class="st10">
					<defs>
						<rect id="SVGID_11_" x="19.18" y="12.19" width="8.02" height="13.65"/>
					</defs>
					<clipPath id="SVGID_12_">
						<use xlink:href="#SVGID_11_"  style="overflow:visible;"/>
					</clipPath>
					<path class="st11" d="M19.18,16.67l7.62-4.44c0.18-0.11,0.4,0.02,0.4,0.23v8.59c0,0.19-0.1,0.37-0.26,0.46l-7.36,4.29
						c-0.17,0.1-0.4-0.03-0.4-0.23V16.67z"/>
				</g>
			</g>
		</g>
		<g class="st12">
			<g>
				<defs>
					<rect id="SVGID_13_" x="11.42" y="16.67" width="15.52" height="9.27"/>
				</defs>
				<clipPath id="SVGID_14_">
					<use xlink:href="#SVGID_13_"  style="overflow:visible;"/>
				</clipPath>
				<g class="st13">
					<defs>
						<rect id="SVGID_15_" x="11.42" y="16.67" width="15.52" height="9.27"/>
					</defs>
					<clipPath id="SVGID_16_">
						<use xlink:href="#SVGID_15_"  style="overflow:visible;"/>
					</clipPath>
					<path class="st14" d="M26.8,21.12l-7.63-4.45l-7.62,4.45c-0.18,0.1-0.18,0.36,0,0.46l7.36,4.29c0.17,0.09,0.37,0.09,0.54,0
						l7.36-4.29C26.98,21.48,26.98,21.22,26.8,21.12"/>
				</g>
			</g>
		</g>
		<path class="st15" d="M26.8,11.76l-7.36-4.29c-0.17-0.09-0.37-0.09-0.53,0l-7.36,4.29c-0.18,0.1-0.18,0.36,0,0.46l7.62,4.45
			l7.63-4.45C26.98,12.12,26.98,11.86,26.8,11.76"/>
	</g>
</g>
</svg>
